<svg width="32" height="32" viewBox="0 0 32 32" fill="none" xmlns="http://www.w3.org/2000/svg">
<path fill-rule="evenodd" clip-rule="evenodd" d="M4.00006 7.10833C4.00006 5.51403 5.30819 4 7.01673 4H11.2334C12.8477 4 14.2946 5.3096 14.4299 6.93362C14.4322 6.96124 14.4334 6.98895 14.4334 7.01667V11.875C14.4334 12.3057 14.2486 12.8406 13.8655 13.2238L13.8496 13.2393L12.3249 14.6978C12.4824 14.9166 12.6827 15.1738 12.9247 15.4635C13.4244 16.0618 14.0479 16.7357 14.702 17.3898C15.356 18.0439 16.03 18.6673 16.6282 19.167C16.9117 19.4038 17.1641 19.6007 17.3798 19.7566L18.8379 18.1659C18.8477 18.1553 18.8577 18.1448 18.868 18.1346C19.0187 17.9839 19.2091 17.8311 19.4554 17.7216C19.706 17.6102 19.9625 17.5667 20.2167 17.5667L20.236 17.5669L24.994 17.6584C26.6973 17.6646 28.0001 19.1757 28.0001 20.7667V24.9833C28.0001 26.6356 26.6357 28 24.9834 28H22.7706C18.8347 27.9495 14.1804 25.3989 10.5531 21.9242C6.91999 18.444 4.05016 13.7814 4.00012 9.22766L4 9.21667L4.00006 7.10833ZM7.01673 6C6.52526 6 6.00006 6.50264 6.00006 7.10833V9.21103C6.04393 12.9976 8.49008 17.1784 11.9366 20.4799C15.3883 23.7865 19.5767 25.9561 22.79 26H24.9834C25.5311 26 26.0001 25.531 26.0001 24.9833V20.7667C26.0001 20.161 25.4749 19.6583 24.9834 19.6583L24.9642 19.6581L20.266 19.5678L18.2955 21.7174C17.9998 22.04 17.5286 22.1328 17.1326 21.9465C16.6175 21.7041 15.9775 21.2294 15.3461 20.702C14.6926 20.1561 13.9743 19.4905 13.2877 18.804C12.6012 18.1174 11.9356 17.3992 11.3897 16.7456C10.8623 16.1142 10.3876 15.4742 10.1452 14.9591C9.96221 14.5702 10.0482 14.1078 10.3588 13.8107L12.4334 11.8263V7.06562C12.3663 6.50323 11.8075 6 11.2334 6H7.01673Z" fill="#FF5C00"/>
<path fill-rule="evenodd" clip-rule="evenodd" d="M4.00006 7.10833C4.00006 5.51403 5.30819 4 7.01673 4H11.2334C12.8477 4 14.2946 5.3096 14.4299 6.93362C14.4322 6.96124 14.4334 6.98895 14.4334 7.01667V11.875C14.4334 12.3057 14.2486 12.8406 13.8655 13.2238L13.8496 13.2393L12.3249 14.6978C12.4824 14.9166 12.6827 15.1738 12.9247 15.4635C13.4244 16.0618 14.0479 16.7357 14.702 17.3898C15.356 18.0439 16.03 18.6673 16.6282 19.167C16.9117 19.4038 17.1641 19.6007 17.3798 19.7566L18.8379 18.1659C18.8477 18.1553 18.8577 18.1448 18.868 18.1346C19.0187 17.9839 19.2091 17.8311 19.4554 17.7216C19.706 17.6102 19.9625 17.5667 20.2167 17.5667L20.236 17.5669L24.994 17.6584C26.6973 17.6646 28.0001 19.1757 28.0001 20.7667V24.9833C28.0001 26.6356 26.6357 28 24.9834 28H22.7706C18.8347 27.9495 14.1804 25.3989 10.5531 21.9242C6.91999 18.444 4.05016 13.7814 4.00012 9.22766L4 9.21667L4.00006 7.10833ZM7.01673 6C6.52526 6 6.00006 6.50264 6.00006 7.10833V9.21103C6.04393 12.9976 8.49008 17.1784 11.9366 20.4799C15.3883 23.7865 19.5767 25.9561 22.79 26H24.9834C25.5311 26 26.0001 25.531 26.0001 24.9833V20.7667C26.0001 20.161 25.4749 19.6583 24.9834 19.6583L24.9642 19.6581L20.266 19.5678L18.2955 21.7174C17.9998 22.04 17.5286 22.1328 17.1326 21.9465C16.6175 21.7041 15.9775 21.2294 15.3461 20.702C14.6926 20.1561 13.9743 19.4905 13.2877 18.804C12.6012 18.1174 11.9356 17.3992 11.3897 16.7456C10.8623 16.1142 10.3876 15.4742 10.1452 14.9591C9.96221 14.5702 10.0482 14.1078 10.3588 13.8107L12.4334 11.8263V7.06562C12.3663 6.50323 11.8075 6 11.2334 6H7.01673Z" fill="url(#paint0_linear_816_122)"/>
<defs>
<linearGradient id="paint0_linear_816_122" x1="3.99867" y1="4.00095" x2="27.9971" y2="27.9995" gradientUnits="userSpaceOnUse">
<stop stop-color="#AF8338"/>
<stop offset="0.1" stop-color="#AF8338"/>
<stop offset="0.11" stop-color="#AF8338"/>
<stop offset="0.16" stop-color="#C09951"/>
<stop offset="0.26" stop-color="#D9BB77"/>
<stop offset="0.34" stop-color="#EBD392"/>
<stop offset="0.42" stop-color="#F6E2A2"/>
<stop offset="0.48" stop-color="#FAE7A8"/>
<stop offset="0.9" stop-color="#AF8338"/>
<stop offset="0.96" stop-color="#825428"/>
<stop offset="1" stop-color="#6F4022"/>
</linearGradient>
</defs>
</svg>
